# xmcd CD database file
#
# Track frame offsets:
#	150
#	4846
#	30283
#	47204
#	63719
#	84871
#	110485
#	124293
#	136368
#	159679
#	181193
#
# Disc length: 2535 seconds
#
# Revision: 0
# Processed by: cddbd v1.5.1PL0 Copyright (c) Steve Scherf et al.
# Submitted via: CDex 1.50beta10
#
DISCID=8d09e50b
DTITLE=Seraphic Lawsuit - ろうらん堂
DYEAR=2005
DGENRE=Game
TTITLE0=与猶啓至 , Lyzell(Rolando.)/よなたんフーガ(仮)
TTITLE1=TAITO , mobius(MTK2)/GRIDSEEKER
TTITLE2=CAVE , A-TACKQ(Rolando.)/レコ姫の冒険
TTITLE3=上海アリス幻樂団 , SHO［HarukaHa］(Rolando.)/上海紅茶館 〜 Chinese Tea
TTITLE4=上海アリス幻樂団 , 高瀬裕司(MTK2)/ヴワル魔法図書館
TTITLE5=上海アリス幻樂団 , 諌月呉霞(System Ancient Angel)/狂気の瞳 〜 Invisible Full Moon
TTITLE6=EIGHTING , RAIZING , SHO［HarukaHa］(Rolando.)/Marginal Consciousness
TTITLE7=Artec , Lyzell(Rolando.)/Euress
TTITLE8=Key , とよしま(とよしまハウス)/東風
TTITLE9=F&C , 葉月わたる(初音館)/のどか
TTITLE10=TAITO , おつ(萬屋音楽堂)/CERAMIC HEART
EXTD=YEAR: 2005
EXTT0=
EXTT1=
EXTT2=
EXTT3=
EXTT4=
EXTT5=
EXTT6=
EXTT7=
EXTT8=
EXTT9=
EXTT10=
PLAYORDER=
